<mxfile host="app.diagrams.net" agent="Mozilla/5.0 (Windows NT 10.0; Win64; x64) AppleWebKit/537.36 (KHTML, like Gecko) Chrome/131.0.0.0 Safari/537.36 Edg/131.0.0.0" version="25.0.3">
  <diagram id="C5RBs43oDa-KdzZeNtuy" name="Page-1">
    <mxGraphModel dx="1042" dy="565" grid="1" gridSize="10" guides="1" tooltips="1" connect="1" arrows="1" fold="1" page="1" pageScale="1" pageWidth="827" pageHeight="1169" math="0" shadow="0">
      <root>
        <mxCell id="WIyWlLk6GJQsqaUBKTNV-0" />
        <mxCell id="WIyWlLk6GJQsqaUBKTNV-1" parent="WIyWlLk6GJQsqaUBKTNV-0" />
        <mxCell id="Eneo1V9kjWWGkSKuXa3R-2" value="" style="edgeStyle=orthogonalEdgeStyle;rounded=0;orthogonalLoop=1;jettySize=auto;html=1;" edge="1" parent="WIyWlLk6GJQsqaUBKTNV-1" source="Eneo1V9kjWWGkSKuXa3R-0" target="Eneo1V9kjWWGkSKuXa3R-1">
          <mxGeometry relative="1" as="geometry" />
        </mxCell>
        <mxCell id="Eneo1V9kjWWGkSKuXa3R-0" value="start" style="ellipse;whiteSpace=wrap;html=1;" vertex="1" parent="WIyWlLk6GJQsqaUBKTNV-1">
          <mxGeometry x="340" y="10" width="120" height="80" as="geometry" />
        </mxCell>
        <mxCell id="Eneo1V9kjWWGkSKuXa3R-4" value="" style="edgeStyle=orthogonalEdgeStyle;rounded=0;orthogonalLoop=1;jettySize=auto;html=1;" edge="1" parent="WIyWlLk6GJQsqaUBKTNV-1" source="Eneo1V9kjWWGkSKuXa3R-1" target="Eneo1V9kjWWGkSKuXa3R-3">
          <mxGeometry relative="1" as="geometry" />
        </mxCell>
        <mxCell id="Eneo1V9kjWWGkSKuXa3R-1" value="input a,b,&lt;br&gt;pheptoan" style="shape=parallelogram;perimeter=parallelogramPerimeter;whiteSpace=wrap;html=1;fixedSize=1;" vertex="1" parent="WIyWlLk6GJQsqaUBKTNV-1">
          <mxGeometry x="340" y="180" width="120" height="60" as="geometry" />
        </mxCell>
        <mxCell id="Eneo1V9kjWWGkSKuXa3R-8" value="TRUE" style="edgeStyle=orthogonalEdgeStyle;rounded=0;orthogonalLoop=1;jettySize=auto;html=1;" edge="1" parent="WIyWlLk6GJQsqaUBKTNV-1" source="Eneo1V9kjWWGkSKuXa3R-3" target="Eneo1V9kjWWGkSKuXa3R-7">
          <mxGeometry relative="1" as="geometry" />
        </mxCell>
        <mxCell id="Eneo1V9kjWWGkSKuXa3R-13" value="FALSE" style="edgeStyle=orthogonalEdgeStyle;rounded=0;orthogonalLoop=1;jettySize=auto;html=1;" edge="1" parent="WIyWlLk6GJQsqaUBKTNV-1" source="Eneo1V9kjWWGkSKuXa3R-3" target="Eneo1V9kjWWGkSKuXa3R-12">
          <mxGeometry relative="1" as="geometry" />
        </mxCell>
        <mxCell id="Eneo1V9kjWWGkSKuXa3R-3" value="pheptoan&lt;br&gt;=&#39;+&#39;" style="rhombus;whiteSpace=wrap;html=1;" vertex="1" parent="WIyWlLk6GJQsqaUBKTNV-1">
          <mxGeometry x="360" y="310" width="80" height="80" as="geometry" />
        </mxCell>
        <mxCell id="Eneo1V9kjWWGkSKuXa3R-29" style="edgeStyle=orthogonalEdgeStyle;rounded=0;orthogonalLoop=1;jettySize=auto;html=1;entryX=0;entryY=0.5;entryDx=0;entryDy=0;" edge="1" parent="WIyWlLk6GJQsqaUBKTNV-1" source="Eneo1V9kjWWGkSKuXa3R-7" target="Eneo1V9kjWWGkSKuXa3R-25">
          <mxGeometry relative="1" as="geometry">
            <Array as="points">
              <mxPoint x="300" y="930" />
            </Array>
          </mxGeometry>
        </mxCell>
        <mxCell id="Eneo1V9kjWWGkSKuXa3R-7" value="kq = a + b" style="whiteSpace=wrap;html=1;" vertex="1" parent="WIyWlLk6GJQsqaUBKTNV-1">
          <mxGeometry x="240" y="430" width="120" height="60" as="geometry" />
        </mxCell>
        <mxCell id="Eneo1V9kjWWGkSKuXa3R-15" value="TRUE" style="edgeStyle=orthogonalEdgeStyle;rounded=0;orthogonalLoop=1;jettySize=auto;html=1;" edge="1" parent="WIyWlLk6GJQsqaUBKTNV-1" source="Eneo1V9kjWWGkSKuXa3R-12" target="Eneo1V9kjWWGkSKuXa3R-14">
          <mxGeometry relative="1" as="geometry" />
        </mxCell>
        <mxCell id="Eneo1V9kjWWGkSKuXa3R-17" value="FALSE" style="edgeStyle=orthogonalEdgeStyle;rounded=0;orthogonalLoop=1;jettySize=auto;html=1;" edge="1" parent="WIyWlLk6GJQsqaUBKTNV-1" source="Eneo1V9kjWWGkSKuXa3R-12" target="Eneo1V9kjWWGkSKuXa3R-16">
          <mxGeometry relative="1" as="geometry" />
        </mxCell>
        <mxCell id="Eneo1V9kjWWGkSKuXa3R-12" value="pheptoan&lt;br&gt;=&#39;-&#39;" style="rhombus;whiteSpace=wrap;html=1;" vertex="1" parent="WIyWlLk6GJQsqaUBKTNV-1">
          <mxGeometry x="470" y="430" width="80" height="80" as="geometry" />
        </mxCell>
        <mxCell id="Eneo1V9kjWWGkSKuXa3R-28" style="edgeStyle=orthogonalEdgeStyle;rounded=0;orthogonalLoop=1;jettySize=auto;html=1;entryX=0.25;entryY=0;entryDx=0;entryDy=0;" edge="1" parent="WIyWlLk6GJQsqaUBKTNV-1" source="Eneo1V9kjWWGkSKuXa3R-14" target="Eneo1V9kjWWGkSKuXa3R-25">
          <mxGeometry relative="1" as="geometry">
            <Array as="points">
              <mxPoint x="390" y="680" />
              <mxPoint x="390" y="680" />
            </Array>
          </mxGeometry>
        </mxCell>
        <mxCell id="Eneo1V9kjWWGkSKuXa3R-14" value="kq = a -b" style="whiteSpace=wrap;html=1;" vertex="1" parent="WIyWlLk6GJQsqaUBKTNV-1">
          <mxGeometry x="380" y="550" width="120" height="60" as="geometry" />
        </mxCell>
        <mxCell id="Eneo1V9kjWWGkSKuXa3R-19" value="TRUE" style="edgeStyle=orthogonalEdgeStyle;rounded=0;orthogonalLoop=1;jettySize=auto;html=1;" edge="1" parent="WIyWlLk6GJQsqaUBKTNV-1" source="Eneo1V9kjWWGkSKuXa3R-16" target="Eneo1V9kjWWGkSKuXa3R-18">
          <mxGeometry relative="1" as="geometry" />
        </mxCell>
        <mxCell id="Eneo1V9kjWWGkSKuXa3R-22" value="FALSE" style="edgeStyle=orthogonalEdgeStyle;rounded=0;orthogonalLoop=1;jettySize=auto;html=1;" edge="1" parent="WIyWlLk6GJQsqaUBKTNV-1" source="Eneo1V9kjWWGkSKuXa3R-16" target="Eneo1V9kjWWGkSKuXa3R-21">
          <mxGeometry relative="1" as="geometry" />
        </mxCell>
        <mxCell id="Eneo1V9kjWWGkSKuXa3R-16" value="pheptoan&lt;br&gt;=&#39;*&#39;" style="rhombus;whiteSpace=wrap;html=1;" vertex="1" parent="WIyWlLk6GJQsqaUBKTNV-1">
          <mxGeometry x="580" y="550" width="80" height="80" as="geometry" />
        </mxCell>
        <mxCell id="Eneo1V9kjWWGkSKuXa3R-27" style="edgeStyle=orthogonalEdgeStyle;rounded=0;orthogonalLoop=1;jettySize=auto;html=1;entryX=0.5;entryY=0;entryDx=0;entryDy=0;" edge="1" parent="WIyWlLk6GJQsqaUBKTNV-1" source="Eneo1V9kjWWGkSKuXa3R-18" target="Eneo1V9kjWWGkSKuXa3R-25">
          <mxGeometry relative="1" as="geometry" />
        </mxCell>
        <mxCell id="Eneo1V9kjWWGkSKuXa3R-18" value="kq = a * b" style="whiteSpace=wrap;html=1;" vertex="1" parent="WIyWlLk6GJQsqaUBKTNV-1">
          <mxGeometry x="500" y="690" width="120" height="60" as="geometry" />
        </mxCell>
        <mxCell id="Eneo1V9kjWWGkSKuXa3R-24" value="" style="edgeStyle=orthogonalEdgeStyle;rounded=0;orthogonalLoop=1;jettySize=auto;html=1;" edge="1" parent="WIyWlLk6GJQsqaUBKTNV-1" source="Eneo1V9kjWWGkSKuXa3R-21" target="Eneo1V9kjWWGkSKuXa3R-23">
          <mxGeometry relative="1" as="geometry" />
        </mxCell>
        <mxCell id="Eneo1V9kjWWGkSKuXa3R-21" value="pheptoan&lt;br&gt;=&#39;/&#39;" style="rhombus;whiteSpace=wrap;html=1;" vertex="1" parent="WIyWlLk6GJQsqaUBKTNV-1">
          <mxGeometry x="680" y="690" width="80" height="80" as="geometry" />
        </mxCell>
        <mxCell id="Eneo1V9kjWWGkSKuXa3R-26" style="edgeStyle=orthogonalEdgeStyle;rounded=0;orthogonalLoop=1;jettySize=auto;html=1;entryX=0.75;entryY=0;entryDx=0;entryDy=0;" edge="1" parent="WIyWlLk6GJQsqaUBKTNV-1" source="Eneo1V9kjWWGkSKuXa3R-23" target="Eneo1V9kjWWGkSKuXa3R-25">
          <mxGeometry relative="1" as="geometry" />
        </mxCell>
        <mxCell id="Eneo1V9kjWWGkSKuXa3R-23" value="kq = a / b" style="whiteSpace=wrap;html=1;" vertex="1" parent="WIyWlLk6GJQsqaUBKTNV-1">
          <mxGeometry x="660" y="820" width="120" height="60" as="geometry" />
        </mxCell>
        <mxCell id="Eneo1V9kjWWGkSKuXa3R-30" style="edgeStyle=orthogonalEdgeStyle;rounded=0;orthogonalLoop=1;jettySize=auto;html=1;" edge="1" parent="WIyWlLk6GJQsqaUBKTNV-1" source="Eneo1V9kjWWGkSKuXa3R-25">
          <mxGeometry relative="1" as="geometry">
            <mxPoint x="420" y="1040" as="targetPoint" />
          </mxGeometry>
        </mxCell>
        <mxCell id="Eneo1V9kjWWGkSKuXa3R-25" value="HIển thị kq" style="shape=parallelogram;perimeter=parallelogramPerimeter;whiteSpace=wrap;html=1;fixedSize=1;" vertex="1" parent="WIyWlLk6GJQsqaUBKTNV-1">
          <mxGeometry x="360" y="900" width="120" height="60" as="geometry" />
        </mxCell>
        <mxCell id="Eneo1V9kjWWGkSKuXa3R-31" value="END" style="ellipse;whiteSpace=wrap;html=1;" vertex="1" parent="WIyWlLk6GJQsqaUBKTNV-1">
          <mxGeometry x="360" y="1040" width="120" height="80" as="geometry" />
        </mxCell>
      </root>
    </mxGraphModel>
  </diagram>
</mxfile>
